<svg t="1699411847271" class="icon" viewBox="0 0 1024 1024" version="1.1" xmlns="http://www.w3.org/2000/svg" p-id="13260" width="128" height="128"><path d="M672 832H224c-52.928 0-96-43.072-96-96V160c0-52.928 43.072-96 96-96h448c52.928 0 96 43.072 96 96v576c0 52.928-43.072 96-96 96zM224 128c-17.632 0-32 14.368-32 32v576c0 17.664 14.368 32 32 32h448c17.664 0 32-14.336 32-32V160c0-17.632-14.336-32-32-32H224z m576 832H320c-17.664 0-32-14.304-32-32s14.336-32 32-32h480c17.664 0 32-14.336 32-32V256c0-17.664 14.304-32 32-32s32 14.336 32 32v608c0 52.928-43.072 96-96 96zM544 320H288c-17.664 0-32-14.336-32-32s14.336-32 32-32h256c17.696 0 32 14.336 32 32s-14.304 32-32 32z m64 160H288.032c-17.664 0-32-14.336-32-32s14.336-32 32-32H608c17.696 0 32 14.336 32 32s-14.304 32-32 32z m0 160H288c-17.664 0-32-14.304-32-32s14.336-32 32-32h320c17.696 0 32 14.304 32 32s-14.304 32-32 32z" fill="#333333" p-id="13261"></path></svg>