<svg t="1697786154565" class="icon" viewBox="0 0 1039 1024" version="1.1" xmlns="http://www.w3.org/2000/svg" p-id="4367" width="128" height="128"><path d="M887.213 360.984c0-19.847-16.088-35.937-35.936-35.937-19.843 0-35.931 16.085-35.933 35.928h-0.003v551.302c0 13.214-10.748 23.957-23.957 23.957H232.061c-13.21 0-23.957-10.743-23.957-23.957V361.216c0-0.072 0.01-0.138 0.01-0.21 0-19.846-16.09-35.935-35.937-35.935-19.835 0-35.917 16.075-35.935 35.905h-0.011v551.302c0 52.843 42.989 95.829 95.83 95.829h559.321c52.84 0 95.829-42.987 95.829-95.829V361.02c0.002-0.015 0.002-0.024 0.002-0.036z" fill="#F62008" p-id="4368"></path><path d="M409.857 838.332c-19.847 0-35.937-16.09-35.937-35.935V360.975c0-19.846 16.09-35.936 35.937-35.936 19.847 0 35.936 16.09 35.936 35.936v441.42c0 19.848-16.09 35.937-35.936 35.937zM613.589 838.332c-19.847 0-35.937-16.09-35.937-35.935V360.975c0-19.846 16.09-35.936 35.937-35.936s35.935 16.09 35.935 35.936v441.42c0 19.848-16.09 35.937-35.935 35.937zM987.098 155.264H819.302v-39.992c0-52.84-42.99-95.83-95.83-95.83H299.974c-52.841 0-95.83 42.99-95.83 95.83v39.992H36.348C16.5 155.264 0.41 171.354 0.41 191.201c0 19.846 16.09 35.935 35.937 35.935h950.75c19.848 0 35.936-16.09 35.936-35.935 0-19.847-16.09-35.937-35.936-35.937z m-711.082-39.992c0-13.208 10.747-23.957 23.958-23.957h423.498c13.21 0 23.958 10.748 23.958 23.957v39.992H276.016v-39.992z" fill="#F62008" p-id="4369"></path></svg>