<svg t="1697786555032" class="icon" viewBox="0 0 1024 1024" version="1.1" xmlns="http://www.w3.org/2000/svg" p-id="5356" width="128" height="128"><path d="M769.462857 379.392L605.257143 215.259429l108.324571-108.251429c25.892571-27.648 28.525714-27.355429 54.418286 0.219429l109.421714 109.348571c26.550857 27.062857 28.306286 26.624 0.219429 54.418286l-108.251429 108.251428v0.146286zM363.154286 785.554286L199.168 621.494857l352.036571-352.036571 164.059429 164.059428-352.036571 352.036572z m-278.528 114.468571l60.342857-224.402286 164.059428 164.059429-224.402285 60.342857zM958.902857 189.878857L794.916571 25.819429C761.782857-7.314286 719.140571-7.826286 686.006857 25.307429L84.553143 626.688l-81.773714 300.617143c-8.777143 41.691429 12.873143 63.414857 54.637714 54.710857l300.617143-81.92 601.380571-601.453714c33.133714-33.060571 32.548571-75.702857-0.512-108.836572v0.073143zM411.794286 959.561143h515.510857c21.504 0 32.256 10.752 32.256 32.182857 0 21.504-10.752 32.256-32.182857 32.256H411.794286c-21.430857 0-32.182857-10.752-32.182857-32.182857 0-21.504 10.752-32.256 32.182857-32.256z" fill="#009CD1" p-id="5357"></path></svg>