<svg t="1699411884763" class="icon" viewBox="0 0 1024 1024" version="1.1" xmlns="http://www.w3.org/2000/svg" p-id="15121" width="128" height="128"><path d="M155.733 806.4h-6.4c-8.533-2.133-14.933-12.8-14.933-21.333 0-4.267 27.733-362.667 420.267-396.8v-211.2c0-8.534 4.266-17.067 12.8-19.2 8.533-4.267 17.066-2.134 23.466 4.266L896 465.067c8.533 8.533 8.533 21.333 0 29.866L590.933 800c-6.4 6.4-14.933 8.533-23.466 4.267-8.534-4.267-12.8-10.667-12.8-19.2V578.133c-70.4 8.534-290.134 51.2-381.867 215.467-2.133 8.533-10.667 12.8-17.067 12.8zM576 533.333c6.4 0 10.667 2.134 14.933 6.4 4.267 4.267 6.4 10.667 6.4 14.934v179.2l251.734-251.734-251.734-253.866v177.066c0 10.667-8.533 21.334-19.2 21.334-249.6 14.933-345.6 164.266-379.733 266.666 138.667-142.933 364.8-160 377.6-160z m0-128z" p-id="15122"></path></svg>